<?xml version="1.0" standalone="no"?>
<!DOCTYPE svg PUBLIC "-//W3C//DTD SVG 20010904//EN"
 "http://www.w3.org/TR/2001/REC-SVG-20010904/DTD/svg10.dtd">
<svg version="1.0" xmlns="http://www.w3.org/2000/svg"
 width="512.000000pt" height="512.000000pt" viewBox="0 0 512.000000 512.000000"
 preserveAspectRatio="xMidYMid meet">
<metadata>
Created by potrace 1.14, written by Peter Selinger 2001-2017
</metadata>
<g transform="translate(0.000000,512.000000) scale(0.100000,-0.100000)"
fill="#000000" stroke="none">
<path d="M1407 4764 c-1 -1 -22 -4 -47 -7 -526 -60 -996 -519 -1223 -1197 -21
-62 -52 -171 -61 -215 -25 -116 -35 -166 -42 -220 -2 -22 -7 -49 -9 -60 -13
-62 -20 -205 -19 -390 0 -195 4 -258 21 -375 3 -25 7 -52 8 -60 1 -8 5 -31 9
-50 3 -19 8 -46 10 -60 30 -187 130 -471 237 -677 55 -107 82 -131 131 -120
20 4 31 -7 77 -75 48 -72 52 -83 41 -103 -8 -14 -10 -35 -6 -51 13 -51 233
-250 356 -323 295 -173 607 -218 903 -130 l67 20 68 -55 c366 -294 912 -342
1482 -129 752 281 1405 974 1629 1730 25 86 46 182 66 303 11 61 13 353 4 418
-14 97 -17 113 -45 208 -149 515 -593 827 -1174 827 -134 -1 -188 -5 -245 -19
-23 -6 -55 -52 -48 -70 2 -6 -23 -16 -59 -23 -73 -14 -75 -15 -106 -25 -18 -6
-28 -2 -47 18 -15 16 -35 26 -52 26 -55 0 -371 -134 -483 -205 l-38 -24 -32
77 c-69 166 -207 404 -300 517 -61 74 -222 227 -294 280 -137 100 -355 201
-476 218 -19 3 -57 9 -85 13 -45 6 -213 13 -218 8z"/>
</g>
</svg>
